<?xml version="1.0" encoding="UTF-8" standalone="no"?>
<svg
   xmlns:dc="http://purl.org/dc/elements/1.1/"
   xmlns:cc="http://creativecommons.org/ns#"
   xmlns:rdf="http://www.w3.org/1999/02/22-rdf-syntax-ns#"
   xmlns:svg="http://www.w3.org/2000/svg"
   xmlns="http://www.w3.org/2000/svg"
   xmlns:sodipodi="http://sodipodi.sourceforge.net/DTD/sodipodi-0.dtd"
   xmlns:inkscape="http://www.inkscape.org/namespaces/inkscape"
   width="125.07809mm"
   height="56.040855mm"
   viewBox="0 0 125.07809 56.040855"
   version="1.1"
   id="svg923"
   inkscape:version="1.0.2 (e86c870879, 2021-01-15)"
   sodipodi:docname="OM_Logo.svg"
   inkscape:export-filename="/home/jebeling/Development/OpenMowerProject/CoverUI/Firmware/CoverUI/YardForce/assets/OM_Logo.png"
   inkscape:export-xdpi="24.368774"
   inkscape:export-ydpi="24.368774">
  <defs
     id="defs917" />
  <sodipodi:namedview
     id="base"
     pagecolor="#ffffff"
     bordercolor="#666666"
     borderopacity="1.0"
     inkscape:pageopacity="0"
     inkscape:pageshadow="2"
     inkscape:zoom="1.979899"
     inkscape:cx="236.25949"
     inkscape:cy="109.19359"
     inkscape:document-units="mm"
     inkscape:current-layer="layer1"
     inkscape:document-rotation="0"
     showgrid="false"
     inkscape:pagecheckerboard="true"
     fit-margin-top="0"
     fit-margin-left="0"
     fit-margin-right="0"
     fit-margin-bottom="0"
     inkscape:window-width="1920"
     inkscape:window-height="1171"
     inkscape:window-x="0"
     inkscape:window-y="0"
     inkscape:window-maximized="1" />
  <metadata
     id="metadata920">
    <rdf:RDF>
      <cc:Work
         rdf:about="">
        <dc:format>image/svg+xml</dc:format>
        <dc:type
           rdf:resource="http://purl.org/dc/dcmitype/StillImage" />
        <dc:title />
      </cc:Work>
    </rdf:RDF>
  </metadata>
  <g
     inkscape:label="Ebene 1"
     inkscape:groupmode="layer"
     id="layer1"
     transform="translate(-10.929475,-12.30453)">
    <path
       d="m 119.61028,16.581255 c -5.33189,-2.01586 -14.61665,-4.276725 -29.442572,-4.276725 -34.771542,0 -57.228581,18.378223 -58.210185,20.860808 h 22.268391 l 10.5918,-10.5918 h 20.03134 c 0.532077,-1.258887 1.799431,-2.131483 3.264429,-2.075656 1.750218,0.06641 3.198812,1.514739 3.265223,3.264958 0.07382,1.938338 -1.475846,3.532717 -3.397515,3.532717 -1.409171,0 -2.617787,-0.856986 -3.133725,-2.078302 H 65.912825 l -7.948084,7.948083 h 7.7216 c 0.576527,-1.364985 2.019036,-2.275152 3.639079,-2.04179 1.507596,0.217223 2.705365,1.461559 2.873111,2.975505 0.227277,2.051579 -1.372923,3.788304 -3.378729,3.788304 -1.408907,0 -2.617523,-0.856986 -3.133461,-2.078302 H 28.385383 c -2.897981,1.459441 -5.541962,2.859616 -7.877704,4.138877 h 9.795404 l 6.608234,6.608233 H 53.91741 c 0.576792,-1.36525 2.019036,-2.275152 3.639079,-2.04179 1.507596,0.217223 2.705365,1.461294 2.873111,2.97524 0.227277,2.051579 -1.372659,3.788569 -3.378465,3.788569 -1.409171,0 -2.617787,-0.85725 -3.133725,-2.078302 H 35.815942 L 29.207973,42.591648 H 15.80471 c -1.112043,0.641879 -2.098939,1.223698 -2.946929,1.731434 -1.978024,1.184275 -2.531533,3.798622 -1.204647,5.684043 l 4.213224,5.987521 -3.861064,7.18053 c -0.567796,1.05568 0.19685,2.33494 1.395412,2.33494 h 74.239702 c 1.694391,-3.15039 2.05052,-3.81264 3.744912,-6.96277 -2.571485,-3.94626 -4.065852,-8.658489 -4.065852,-13.719704 0,-13.681604 10.91274,-24.987779 24.513642,-25.161875 1.54147,-0.01984 4.45717,-0.02196 7.21254,-0.01826 1.76266,0.0024 2.21324,-2.442898 0.56463,-3.066256"
       style="clip-rule:evenodd;fill:#808080;fill-opacity:1;fill-rule:nonzero;stroke-width:0.264583;stroke-linejoin:round;stroke-miterlimit:2"
       fill="#ffffff"
       id="path40" />
    <path
       d="m 112.48982,53.273938 c -4.66487,0 -8.44656,-3.78169 -8.44656,-8.446558 0,-4.664869 3.78169,-8.446559 8.44656,-8.446559 4.66486,0 8.44655,3.78169 8.44655,8.446559 0,4.664868 -3.78169,8.446558 -8.44655,8.446558 M 134.9241,42.327332 c -0.52811,0 -0.98346,-0.381 -1.06574,-0.902759 -0.54319,-3.435614 -1.89416,-6.600824 -3.85313,-9.297458 -0.31089,-0.42836 -0.26009,-1.019439 0.1143,-1.39356 l 0.002,-0.0019 c 0.42281,-0.423069 0.42281,-1.109134 0,-1.532202 l -2.00369,-2.003425 c -0.42307,-0.423069 -1.10913,-0.423069 -1.5322,0 l -0.002,0.0019 c -0.37412,0.374121 -0.9652,0.425185 -1.39356,0.114035 -2.69689,-1.958975 -5.8621,-3.309937 -9.29772,-3.852862 -0.52176,-0.08255 -0.90276,-0.537634 -0.90276,-1.066271 0,-0.598223 -0.48498,-1.083204 -1.0832,-1.083204 h -2.83369 c -0.59822,0 -1.08347,0.484981 -1.08347,1.083204 0,0.528637 -0.38047,0.983721 -0.90249,1.066271 -3.43562,0.542925 -6.60083,1.893887 -9.297458,3.852862 -0.428096,0.31115 -1.019175,0.260086 -1.393825,-0.114035 l -0.0016,-0.0019 c -0.423069,-0.423069 -1.109133,-0.423069 -1.531937,0 l -2.00369,2.003425 c -0.423069,0.423068 -0.423069,1.109133 0,1.532202 l 0.0019,0.0019 c 0.374121,0.374121 0.425186,0.965464 0.114036,1.39356 -1.958975,2.696634 -3.309938,5.861844 -3.853127,9.297458 -0.08229,0.521759 -0.537369,0.902759 -1.065742,0.902759 -0.598488,0 -1.083469,0.484981 -1.083469,1.083468 v 2.833423 c 0,0.598223 0.484981,1.083469 1.083469,1.083469 0.528373,0 0.983456,0.380736 1.065742,0.902758 0.543189,3.43535 1.894152,6.600561 3.853127,9.297459 0.31115,0.428097 0.260085,1.019177 -0.114036,1.393557 l -0.0019,0.002 c -0.423069,0.4228 -0.423069,1.10886 0,1.53193 l 2.00369,2.00369 c 0.422804,0.42307 1.108868,0.42307 1.531937,0 l 0.0016,-0.002 c 0.37465,-0.37439 0.965729,-0.42519 1.393825,-0.1143 2.696628,1.95898 5.861838,3.3102 9.297458,3.85313 0.52202,0.0823 0.90249,0.53763 0.90249,1.066 0,0.59849 0.48525,1.08347 1.08347,1.08347 h 2.83369 c 0.59822,0 1.0832,-0.48498 1.0832,-1.08347 0,-0.52837 0.381,-0.98372 0.90276,-1.066 3.43562,-0.54293 6.60083,-1.89415 9.29772,-3.85313 0.42836,-0.31089 1.01944,-0.26009 1.39356,0.1143 l 0.002,0.002 c 0.42307,0.42307 1.10913,0.42307 1.5322,0 l 2.00369,-2.00369 c 0.42281,-0.42307 0.42281,-1.10887 0,-1.53193 l -0.002,-0.002 c -0.37439,-0.37438 -0.42519,-0.96546 -0.1143,-1.393557 1.95897,-2.696898 3.30994,-5.862109 3.85313,-9.297459 0.0823,-0.522022 0.53763,-0.902758 1.06574,-0.902758 0.59849,0 1.08347,-0.485246 1.08347,-1.083469 V 43.4108 c 0,-0.598487 -0.48498,-1.083468 -1.08347,-1.083468"
       style="clip-rule:evenodd;fill:#010101;fill-opacity:1;fill-rule:nonzero;stroke-width:0.264583;stroke-linejoin:round;stroke-miterlimit:2"
       fill="#ffffff"
       id="path44" />
    <path
       style="fill:#808080;fill-opacity:1;stroke-width:0.505076"
       d="M 7.50725,200.45762 C 6.5609971,200.12606 5.3160988,199.22 4.7408093,198.44416 c -2.0464977,-2.75993 -1.6055637,-4.06257 6.4071297,-18.92849 4.083025,-7.57522 7.423682,-14.01749 7.423682,-14.31615 0,-0.29866 -3.632061,-5.71422 -8.071246,-12.03459 -4.4391842,-6.32037 -8.5253104,-12.49239 -9.0802799,-13.71559 -1.25733736,-2.77129 -1.34351059,-7.441 -0.1992834,-10.79912 1.1974292,-3.51426 4.5413629,-6.61684 11.3480563,-10.52899 l 5.866539,-3.3718 h 25.199517 25.199518 l 12.366636,12.37437 12.366636,12.37437 34.349056,0.0274 34.34905,0.0274 1.51523,2.33112 c 1.0069,1.54908 2.44717,2.85307 4.29315,3.88693 2.39369,1.34059 3.26694,1.55113 6.31345,1.52216 2.56025,-0.0243 4.09284,-0.32562 5.55584,-1.09216 7.69859,-4.03368 9.71038,-13.81324 4.14274,-20.13842 -2.91262,-3.30891 -5.40796,-4.46148 -9.69858,-4.47968 -3.02695,-0.0128 -3.93514,0.2088 -6.31345,1.54079 -1.84598,1.03385 -3.28625,2.33784 -4.29315,3.88692 l -1.51523,2.33112 -31.82359,0.0274 -31.823596,0.0274 -12.619331,-12.6269 -12.619331,-12.62691 -17.933995,-0.006 -17.933996,-0.006 2.272843,-1.30281 c 1.250064,-0.71654 7.638878,-4.12307 14.197366,-7.570059 l 11.924522,-6.267299 h 70.529178 c 40.98072,0 70.52918,0.188717 70.52918,0.450452 0,0.247745 1.02912,1.595077 2.28693,2.994062 2.72482,3.03066 5.81649,4.389184 9.8349,4.321599 3.40094,-0.0572 5.8248,-1.038204 8.47014,-3.428109 2.9464,-2.661893 4.33735,-6.23651 4.04061,-10.383954 -0.27792,-3.884218 -1.21674,-5.914968 -3.96954,-8.586468 -5.73794,-5.568491 -15.89572,-4.268122 -19.77864,2.532008 l -1.13694,1.991106 -14.39146,0.0039 -14.39147,0.0039 14.89333,-14.89975 14.89334,-14.89975 h 35.61202 35.61203 l 1.76683,2.377132 c 4.61531,6.209549 13.39169,7.03504 19.207,1.806577 2.9196,-2.624973 4.28224,-5.773218 4.21553,-9.739548 -0.11817,-7.026299 -5.82921,-12.609805 -12.91026,-12.621972 -4.56905,-0.0078 -8.32069,1.946763 -10.73291,5.59187 l -1.30987,1.97934 H 241.43167 203.6867 L 183.47608,58.68891 163.26546,78.894906 121.37477,78.765692 79.484092,78.636478 82.741697,75.152831 C 88.476636,69.019952 99.417553,60.550652 111.38457,52.980543 153.72126,26.199164 206.06051,8.3312562 259.493,2.4183385 c 14.55869,-1.61108552 22.98132,-2.01901649 41.41626,-2.00590132 28.65776,0.0203879 50.82299,1.84874022 73.23606,6.04105252 14.28848,2.6726282 35.29353,8.6727313 38.10596,10.8849883 2.75565,2.167597 2.71574,6.81764 -0.0774,9.014708 -1.22393,0.962741 -2.03829,1.019019 -14.98946,1.035876 -16.95895,0.02207 -25.07848,0.561684 -33.20229,2.20657 -31.68734,6.415962 -58.20997,29.397693 -69.60527,60.312628 -4.51085,12.23776 -6.46749,26.29843 -5.53111,39.74747 1.02016,14.65242 5.77413,30.00419 12.92662,41.74331 l 2.04968,3.36406 -7.06328,13.17719 -7.06329,13.17718 -140.23389,-0.0285 C 42.171146,201.06715 8.8235429,200.91884 7.50725,200.45762 Z"
       id="path1500"
       transform="matrix(0.26458333,0,0,0.26458333,10.929475,12.30453)" />
    <path
       style="fill:#010101;fill-opacity:1;stroke-width:0.505076"
       d="m 7.4774323,200.45809 c -2.3679264,-0.81621 -4.2278478,-3.59026 -3.8778645,-5.7838 0.1443513,-0.90474 2.9747341,-6.70049 6.2897401,-12.87945 9.3870571,-17.49689 8.8973851,-16.38067 7.8829411,-17.96941 -0.472797,-0.74046 -4.121982,-6.03556 -8.1092992,-11.76688 C 1.219627,139.9222 0.41519163,138.3677 0.39996717,134.15857 0.37478901,127.19755 2.809375,123.89709 11.940966,118.51295 l 6.378116,-3.76064 25.253814,3e-5 25.253814,2e-5 12.374368,12.36801 12.374369,12.368 34.471453,0.005 c 18.9593,0.003 34.47146,0.20018 34.47146,0.43887 0,0.94551 4.2841,5.2265 6.2487,6.24416 2.53952,1.31547 7.73913,1.45826 10.45555,0.28713 2.53176,-1.09153 5.38408,-3.72427 6.67358,-6.15982 1.54486,-2.91791 1.54486,-8.7945 0,-11.7124 -1.2895,-2.43556 -4.14182,-5.0683 -6.67358,-6.15982 -2.71642,-1.17113 -7.91603,-1.02834 -10.45555,0.28713 -1.9646,1.0175 -6.2487,5.29849 -6.2487,6.24401 0,0.23868 -14.37744,0.43396 -31.94986,0.43396 H 98.618634 l -12.619331,-12.6269 -12.619331,-12.62691 -17.933995,-0.002 c -17.880469,-0.002 -17.929265,-0.005 -16.348814,-0.96848 0.87185,-0.53163 7.247968,-3.940043 14.169152,-7.574254 l 12.58397,-6.607534 h 70.557395 c 38.99386,0 70.55739,0.194131 70.55739,0.433967 0,1.009051 4.22731,5.12214 6.29128,6.121292 2.7056,1.309758 7.70421,1.458852 10.44153,0.31143 5.95884,-2.497805 9.27114,-9.41837 7.5131,-15.697498 -1.24817,-4.458 -6.04329,-8.517319 -10.83742,-9.174428 -4.64045,-0.636042 -10.31695,2.039534 -12.52276,5.902508 l -1.13827,1.993425 -14.39146,0.0039 -14.39147,0.0039 14.89333,-14.89975 14.89334,-14.89975 h 35.73019 35.73018 l 1.2782,1.931488 c 5.54361,8.376957 18.8999,7.054047 22.79045,-2.25734 1.15455,-2.763239 0.89461,-7.898978 -0.54344,-10.736825 -4.40614,-8.695108 -17.06985,-9.602572 -22.0203,-1.577943 l -1.23803,2.006848 -37.87842,0.01359 -37.8784,0.01358 -20.21062,20.205995 -20.21062,20.205996 -41.91607,-0.129214 -41.916079,-0.129214 3.788072,-3.972526 C 94.211197,63.139006 118.83771,46.989339 143.04907,35.429927 196.41859,9.9493155 254.23873,-1.755507 315.50697,0.51840763 352.85991,1.9047282 378.93561,5.890868 404.06192,14.055626 c 7.41808,2.410495 9.70127,3.805534 10.23958,6.256447 0.44122,2.008893 -0.5387,4.79128 -2.1276,6.041113 -1.21593,0.956446 -2.03129,1.018324 -13.47423,1.022567 -30.52167,0.01131 -42.04996,2.177973 -59.40462,11.164654 -8.34099,4.319177 -14.47021,8.868785 -22.03677,16.357487 -14.33229,14.184804 -22.5868,29.292484 -26.7684,48.992396 -1.7926,8.44517 -2.22788,23.19168 -0.95003,32.18606 1.69158,11.90652 6.07216,24.73138 11.7276,34.33445 l 2.58897,4.39614 -6.99454,13.02899 -6.99454,13.02901 -140.31982,0.0982 C 41.867247,201.03855 8.8205806,200.92105 7.4774323,200.45809 Z"
       id="path1502"
       transform="matrix(0.26458333,0,0,0.26458333,10.929475,12.30453)" />
    <path
       style="fill:#ffffff;fill-opacity:1;stroke-width:0.505076"
       d="m 377.17577,153.86505 c -11.30054,-2.42707 -21.08745,-11.8876 -24.0063,-23.20572 -1.00951,-3.91447 -1.00977,-11.76666 -5.2e-4,-15.5705 3.72164,-14.02674 16.1272,-23.650059 30.57282,-23.716143 8.68966,-0.03975 15.95486,2.95399 22.21031,9.152103 10.48476,10.38868 12.52346,25.86609 5.06707,38.4683 -6.90837,11.676 -20.63626,17.70851 -33.84338,14.87196 z"
       id="path1522"
       transform="matrix(0.26458333,0,0,0.26458333,10.929475,12.30453)"
       inkscape:export-xdpi="24.368774"
       inkscape:export-ydpi="24.368774" />
  </g>
</svg>
