<?xml version="1.0" encoding="UTF-8" standalone="no"?>
<svg
   xmlns:serif="http://www.serif.com/"
   xmlns:dc="http://purl.org/dc/elements/1.1/"
   xmlns:cc="http://creativecommons.org/ns#"
   xmlns:rdf="http://www.w3.org/1999/02/22-rdf-syntax-ns#"
   xmlns:svg="http://www.w3.org/2000/svg"
   xmlns="http://www.w3.org/2000/svg"
   xmlns:sodipodi="http://sodipodi.sourceforge.net/DTD/sodipodi-0.dtd"
   xmlns:inkscape="http://www.inkscape.org/namespaces/inkscape"
   width="996.47601"
   height="146.729"
   viewBox="0 0 996.47601 146.729"
   style="clip-rule:evenodd;fill-rule:evenodd;stroke-linejoin:round;stroke-miterlimit:2"
   version="1.1"
   id="svg54"
   sodipodi:docname="OM_Wordmark.svg"
   inkscape:version="1.0.2 (e86c870879, 2021-01-15)">
  <metadata
     id="metadata60">
    <rdf:RDF>
      <cc:Work
         rdf:about="">
        <dc:format>image/svg+xml</dc:format>
        <dc:type
           rdf:resource="http://purl.org/dc/dcmitype/StillImage" />
        <dc:title />
      </cc:Work>
    </rdf:RDF>
  </metadata>
  <defs
     id="defs58" />
  <sodipodi:namedview
     pagecolor="#ffffff"
     bordercolor="#666666"
     borderopacity="1"
     objecttolerance="10"
     gridtolerance="10"
     guidetolerance="10"
     inkscape:pageopacity="0"
     inkscape:pageshadow="2"
     inkscape:window-width="1665"
     inkscape:window-height="888"
     id="namedview56"
     showgrid="false"
     fit-margin-top="0"
     fit-margin-left="0"
     fit-margin-right="0"
     fit-margin-bottom="0"
     inkscape:zoom="1.4061135"
     inkscape:cx="334.89417"
     inkscape:cy="48.850158"
     inkscape:window-x="0"
     inkscape:window-y="0"
     inkscape:window-maximized="0"
     inkscape:current-layer="Layer-1"
     inkscape:document-rotation="0" />
  <g
     transform="translate(-2377.005,-667.154)"
     id="g52">
    <g
       transform="translate(1803.38,592.875)"
       id="g50"
       inkscape:groupmode="layer">
      <rect
         id="Page-6"
         serif:id="Page 6"
         x="0"
         y="0"
         width="1603"
         height="272"
         fill="none" />
      <g
         id="Page-61"
         serif:id="Page 6">
        <g
           id="Layer-1"
           serif:id="Layer 1"
           inkscape:groupmode="layer">
          <g
             transform="translate(682.34,135.614)"
             id="g6">
            <path
               d="m 0,0.001 c 0,-26.444 -20.203,-47.93 -46.647,-47.93 -26.627,0 -46.828,21.486 -46.828,47.93 0,26.444 20.201,47.93 46.828,47.93 C -20.203,47.931 0,26.445 0,0.001 m -108.715,0 c 0,-34.157 26.627,-61.336 62.068,-61.336 35.259,0 61.887,27.179 61.887,61.336 0,34.158 -26.628,61.335 -61.887,61.335 -35.441,0 -62.068,-27.177 -62.068,-61.335"
               style="fill-rule:nonzero;fill:#000000;fill-opacity:1"
               fill="#ffffff"
               id="path4" />
          </g>
          <g
             transform="translate(793.816,174.547)"
             id="g10">
            <path
               d="m 0,-24.241 c 0,-18.914 -13.222,-32.871 -31.036,-32.871 -17.077,0 -30.483,14.14 -30.483,32.871 0,18.73 13.406,33.055 30.483,33.055 C -13.222,8.814 0,-5.142 0,-24.241 m -75.477,-44.624 h 13.406 v 15.426 c 6.613,-11.57 19.651,-17.263 34.158,-17.263 24.791,0 42.236,20.384 42.236,46.461 0,26.076 -17.445,46.644 -42.236,46.644 -14.141,0 -26.997,-5.877 -33.606,-17.446 v 41.504 h -13.958 z"
               style="fill-rule:nonzero;fill:#000000;fill-opacity:1"
               fill="#ffffff"
               id="path8" />
          </g>
          <g
             transform="translate(898.311,155.997)"
             id="g14">
            <path
               d="m 0,-11.199 c -1.469,-16.528 -14.139,-28.466 -29.751,-28.466 -15.239,0 -27.729,11.753 -29.747,28.466 z m -74.006,5.692 c 0,-25.893 19.464,-46.645 44.992,-46.645 23.874,0 42.788,20.568 42.788,46.093 0,2.572 -0.368,5.326 -0.368,5.51 h -72.904 c 2.202,17.814 15.977,29.016 32.503,29.016 10.102,0 20.202,-3.49 27.547,-9.551 L 6.613,29.2 c -9.551,7.53 -21.488,11.753 -33.79,11.753 -25.343,0 -46.829,-18.18 -46.829,-46.46"
               style="fill-rule:nonzero;fill:#000000;fill-opacity:1"
               fill="#ffffff"
               id="path12" />
          </g>
          <g
             transform="translate(931.924,193.277)"
             id="g18"
             style="fill:#000000;fill-opacity:1">
            <path
               d="m 0,-87.595 h 13.955 v 15.242 c 6.245,-10.835 17.813,-17.079 31.035,-17.079 22.405,0 32.321,13.59 32.321,37.096 V 1.837 H 63.356 v -52.338 c 0,-16.526 -6.06,-25.341 -22.221,-25.341 -15.976,0 -27.18,12.487 -27.18,27.363 V 1.837 H 0 Z"
               style="fill-rule:nonzero;fill:#000000;fill-opacity:1"
               fill="#ffffff"
               id="path16" />
          </g>
          <g
             transform="translate(1033.48,195.115)"
             id="g22"
             style="fill:#000000;fill-opacity:1">
            <path
               d="m 0,-118.999 h 13.04 l 29.014,40.401 c 6.245,8.815 19.283,27.545 19.283,27.545 0,0 13.038,-18.546 19.282,-27.361 l 29.014,-40.585 h 13.039 V 0 H 107.98 v -94.208 c 0,0 -3.122,5.693 -8.814,13.59 L 61.337,-27.363 23.324,-80.986 c -5.328,-7.529 -8.633,-13.222 -8.633,-13.222 V 0 H 0 Z"
               style="fill-rule:nonzero;fill:#000000;fill-opacity:1"
               fill="#ffffff"
               id="path20" />
          </g>
          <g
             transform="translate(1257.71,150.305)"
             id="g26"
             style="fill:#000000;fill-opacity:1">
            <path
               d="M 0,0.185 C 0,-18.73 -14.143,-32.87 -32.689,-32.87 c -18.546,0 -32.689,14.14 -32.689,33.055 0,18.73 14.143,32.871 32.689,32.871 C -14.143,33.056 0,18.915 0,0.185 m -79.701,0 c 0,-26.078 20.752,-46.645 47.012,-46.645 26.26,0 47.012,20.567 47.012,46.645 0,25.892 -20.752,46.46 -47.012,46.46 -26.26,0 -47.012,-20.568 -47.012,-46.46"
               style="fill-rule:nonzero;fill:#000000;fill-opacity:1"
               fill="#ffffff"
               id="path24" />
          </g>
          <g
             transform="translate(1278.65,195.665)"
             id="g30"
             style="fill:#000000;fill-opacity:1">
            <path
               d="m 0,-89.983 h 13.774 l 20.2,58.947 c 2.021,6.061 3.122,13.04 3.122,13.04 0,0 0.733,-6.979 2.57,-12.856 l 18.182,-59.131 h 13.038 l 18.362,59.131 c 1.837,5.877 2.574,12.856 2.574,12.856 0,0 0.917,-6.979 3.122,-13.04 l 20.2,-58.947 h 13.77 L 98.063,0 H 85.945 L 67.396,-59.131 c -1.654,-5.142 -2.939,-13.039 -2.939,-13.039 0,0 -1.101,7.897 -2.754,13.039 L 42.789,0 H 30.852 Z"
               style="fill-rule:nonzero;fill:#000000;fill-opacity:1"
               fill="#ffffff"
               id="path28" />
          </g>
          <g
             transform="translate(1488.01,155.997)"
             id="g34"
             style="fill:#000000;fill-opacity:1">
            <path
               d="m 0,-11.199 c -1.469,-16.528 -14.139,-28.466 -29.747,-28.466 -15.243,0 -27.729,11.753 -29.751,28.466 z m -74.005,5.692 c 0,-25.893 19.467,-46.645 44.991,-46.645 23.874,0 42.788,20.568 42.788,46.093 0,2.572 -0.368,5.326 -0.368,5.51 h -72.904 c 2.202,17.814 15.977,29.016 32.505,29.016 10.1,0 20.2,-3.49 27.545,-9.551 L 6.613,29.2 c -9.551,7.53 -21.485,11.753 -33.79,11.753 -25.343,0 -46.828,-18.18 -46.828,-46.46"
               style="fill-rule:nonzero;fill:#000000;fill-opacity:1"
               fill="#ffffff"
               id="path32" />
          </g>
          <g
             transform="translate(1521.62,193.277)"
             id="g38"
             style="fill:#000000;fill-opacity:1">
            <path
               d="m 0,-87.595 h 13.958 v 18.914 c 5.141,-11.752 16.709,-20.751 34.523,-20.751 v 15.242 c -20.932,0 -34.523,11.753 -34.523,33.607 V 1.837 H 0 Z"
               style="fill-rule:nonzero;fill:#000000;fill-opacity:1"
               fill="#ffffff"
               id="path36" />
          </g>
          <g
             transform="translate(443.663,215.024)"
             id="g42" />
          <g
             transform="translate(416.751,121.094)"
             id="g46" />
        </g>
      </g>
    </g>
  </g>
</svg>
